#N canvas 0 23 1440 817 12;
#X obj 100 103 cnv 15 245 105 empty empty empty 20 12 0 14 -191407
-66577 0;
#X obj 208 603 metro 100;
#X obj 102 119 tgl 15 0 empty empty start 17 7 0 10 -262144 -1 -1 0
1;
#X obj 318 31 loadbang;
#X obj 177 119 hradio 15 1 0 3 empty empty 8/16/12 0 -8 0 10 -262144
-1 -1 1;
#X floatatom 102 188 5 0 0 0 - - -;
#X obj 219 768 + 1;
#X obj 102 136 bng 15 50 10 0 empty empty restart 17 7 0 10 -262144
-1 -1;
#X obj 212 136 hsl 128 15 0 3000 0 0 empty empty tempo_(msec) 2 8 0
10 -262144 -1 -1 3098 0;
#X floatatom 170 134 5 0 0 0 - - -;
#X floatatom 305 117 5 0 0 2 bpm - -;
#X floatatom 524 298 5 0 0 0 - - -;
#X obj 525 241 f;
#X obj 288 120 bng 15 250 50 0 empty empty empty 17 7 0 10 -128992
-1 -1;
#X obj 511 266 expr 60000 / $f1;
#X obj 618 115 inlet;
#X obj 343 497 spigot;
#X obj 102 153 tgl 15 0 empty empty empty 17 7 0 10 -261234 -1 -1 0
1;
#X obj 102 171 hradio 15 1 0 16 empty empty empty 0 -8 0 10 -262144
-1 -1 12;
#X obj 148 225 - 1;
#X obj 358 520 spigot;
#X obj 117 153 tgl 15 0 empty empty empty 17 7 0 10 -262144 -1 -1 0
1;
#X obj 393 497 spigot;
#X obj 132 153 tgl 15 0 empty empty empty 17 7 0 10 -262144 -1 -1 0
1;
#X obj 408 520 spigot;
#X obj 147 153 tgl 15 0 empty empty empty 17 7 0 10 -261234 -1 -1 0
1;
#X obj 411 544 spigot;
#X obj 162 153 tgl 15 0 empty empty empty 17 7 0 10 -228856 -1 -1 0
1;
#X obj 426 567 spigot;
#X obj 177 153 tgl 15 0 empty empty empty 17 7 0 10 -262144 -1 -1 0
1;
#X obj 461 544 spigot;
#X obj 192 153 tgl 15 0 empty empty empty 17 7 0 10 -261234 -1 -1 0
1;
#X obj 476 567 spigot;
#X obj 207 153 tgl 15 0 empty empty empty 17 7 0 10 -262144 -1 -1 0
1;
#X obj 463 497 spigot;
#X obj 222 153 tgl 15 0 empty empty empty 17 7 0 10 -228856 -1 -1 0
1;
#X obj 478 520 spigot;
#X obj 237 153 tgl 15 0 empty empty empty 17 7 0 10 -261234 -1 -1 0
1;
#X obj 513 497 spigot;
#X obj 252 153 tgl 15 0 empty empty empty 17 7 0 10 -262144 -1 -1 0
1;
#X obj 528 520 spigot;
#X obj 267 153 tgl 15 0 empty empty empty 17 7 0 10 -262144 -1 -1 0
1;
#X obj 531 544 spigot;
#X obj 282 153 tgl 15 0 empty empty empty 17 7 0 10 -228856 -1 -1 0
1;
#X obj 546 567 spigot;
#X obj 297 153 tgl 15 0 empty empty empty 17 7 0 10 -262144 -1 -1 0
1;
#X obj 581 544 spigot;
#X obj 312 153 tgl 15 0 empty empty empty 17 7 0 10 -262144 -1 -1 0
1;
#X obj 596 567 spigot;
#X obj 327 153 tgl 15 0 empty empty empty 17 7 0 10 -262144 -1 -1 0
1;
#X obj 461 619 t b;
#X obj 327 190 bng 15 50 10 0 empty empty empty 17 7 0 10 -262144 -1
-1;
#X obj 396 337 sel 0 1 2 3 4 5 6 7 8 9 10 11 12 13 14 15;
#X text 246 185 bang outlet;
#X obj 84 240 outlet;
#X obj 914 451 outlet;
#X text 139 185 number outlet;
#X obj 102 102 bng 15 50 10 0 empty empty inlet 17 7 0 10 -262144 -1
-1;
#X obj 443 30 * 2;
#X obj 471 30 * 4;
#X obj 499 30 / 2;
#X obj 527 30 / 4;
#X obj 432 61 f;
#X obj 461 61 f;
#X obj 490 61 f;
#X obj 519 61 f;
#X obj 223 119 bng 15 250 50 0 empty empty x2 3 -5 0 10 -262144 -1
-1;
#X obj 239 119 bng 15 250 50 0 empty empty x4 3 -5 0 10 -262144 -1
-1;
#X obj 255 119 bng 15 250 50 0 empty empty /2 3 -5 0 10 -262144 -1
-1;
#X obj 271 119 bng 15 250 50 0 empty empty /4 3 -5 0 10 -262144 -1
-1;
#X obj 606 85 sel 0 1 2;
#X obj 719 142 inlet;
#X obj 153 122 bng 15 250 50 0 empty empty rndm -5 -6 0 10 -262144
-1 -1;
#X floatatom 798 235 5 0 0 0 - - -;
#X obj 798 211 random 2;
#X obj 851 188 + 1;
#X obj 854 148 hsl 128 15 10 0 0 0 empty empty chance -2 -8 0 10 -262144
-1 -1 11430 0;
#X floatatom 851 167 5 0 0 0 - - -;
#X obj 798 258 sel 1;
#X floatatom 862 236 5 0 0 0 - - -;
#X obj 862 212 random 2;
#X obj 915 189 + 1;
#X obj 862 259 sel 1;
#X floatatom 925 236 5 0 0 0 - - -;
#X obj 925 212 random 2;
#X obj 978 189 + 1;
#X obj 925 259 sel 1;
#X floatatom 989 237 5 0 0 0 - - -;
#X obj 989 213 random 2;
#X obj 1042 190 + 1;
#X obj 989 260 sel 1;
#X floatatom 1053 236 5 0 0 0 - - -;
#X obj 1053 212 random 2;
#X obj 1106 189 + 1;
#X obj 1053 257 sel 1;
#X floatatom 1117 237 5 0 0 0 - - -;
#X obj 1117 213 random 2;
#X obj 1170 190 + 1;
#X obj 1117 260 sel 1;
#X floatatom 1180 236 5 0 0 0 - - -;
#X obj 1180 212 random 2;
#X obj 1233 189 + 1;
#X obj 1180 259 sel 1;
#X floatatom 1244 237 5 0 0 0 - - -;
#X obj 1244 213 random 2;
#X obj 1297 190 + 1;
#X obj 1244 260 sel 1;
#X floatatom 801 335 5 0 0 0 - - -;
#X obj 801 311 random 2;
#X obj 854 288 + 1;
#X obj 801 358 sel 1;
#X floatatom 865 336 5 0 0 0 - - -;
#X obj 865 312 random 2;
#X obj 918 289 + 1;
#X obj 865 359 sel 1;
#X floatatom 928 336 5 0 0 0 - - -;
#X obj 928 312 random 2;
#X obj 981 289 + 1;
#X obj 928 359 sel 1;
#X floatatom 992 337 5 0 0 0 - - -;
#X obj 992 313 random 2;
#X obj 1045 290 + 1;
#X obj 992 360 sel 1;
#X floatatom 1056 336 5 0 0 0 - - -;
#X obj 1056 312 random 2;
#X obj 1109 289 + 1;
#X obj 1056 359 sel 1;
#X floatatom 1120 337 5 0 0 0 - - -;
#X obj 1120 313 random 2;
#X obj 1173 290 + 1;
#X obj 1120 360 sel 1;
#X floatatom 1183 336 5 0 0 0 - - -;
#X obj 1183 312 random 2;
#X obj 1236 289 + 1;
#X obj 1183 359 sel 1;
#X floatatom 1247 337 5 0 0 0 - - -;
#X obj 1247 313 random 2;
#X obj 1300 290 + 1;
#X obj 1247 360 sel 1;
#X obj 843 100 f 1;
#X obj 147 56 f 0;
#X obj 156 102 bng 10 250 50 0 empty empty empty 17 7 0 10 -262144
-1 -1;
#X obj 667 122 inlet;
#X obj 218 677 f;
#X msg 236 639 0;
#X obj 218 701 + 1;
#X floatatom 218 748 5 0 0 0 - - -;
#X obj 218 724 mod 8;
#X msg 176 506 8;
#X msg 208 507 16;
#X msg 243 505 12;
#X obj 671 419 expr 60000 / $f1;
#X floatatom 671 443 5 0 0 0 - - -;
#X obj 671 466 change;
#X connect 1 0 143 0;
#X connect 2 0 1 0;
#X connect 3 0 7 0;
#X connect 3 0 148 0;
#X connect 3 0 139 0;
#X connect 4 0 70 0;
#X connect 5 0 19 0;
#X connect 5 0 54 0;
#X connect 6 0 5 0;
#X connect 7 0 144 0;
#X connect 8 0 9 0;
#X connect 9 0 1 1;
#X connect 9 0 151 0;
#X connect 10 0 12 1;
#X connect 11 0 8 0;
#X connect 11 0 58 0;
#X connect 11 0 61 0;
#X connect 11 0 60 0;
#X connect 11 0 59 0;
#X connect 12 0 14 0;
#X connect 13 0 12 0;
#X connect 14 0 11 0;
#X connect 15 0 57 0;
#X connect 16 0 50 0;
#X connect 17 0 16 1;
#X connect 19 0 18 0;
#X connect 19 0 52 0;
#X connect 20 0 50 0;
#X connect 21 0 20 1;
#X connect 22 0 50 0;
#X connect 23 0 22 1;
#X connect 24 0 50 0;
#X connect 25 0 24 1;
#X connect 26 0 50 0;
#X connect 27 0 26 1;
#X connect 28 0 50 0;
#X connect 29 0 28 1;
#X connect 30 0 50 0;
#X connect 31 0 30 1;
#X connect 32 0 50 0;
#X connect 33 0 32 1;
#X connect 34 0 50 0;
#X connect 35 0 34 1;
#X connect 36 0 50 0;
#X connect 37 0 36 1;
#X connect 38 0 50 0;
#X connect 39 0 38 1;
#X connect 40 0 50 0;
#X connect 41 0 40 1;
#X connect 42 0 50 0;
#X connect 43 0 42 1;
#X connect 44 0 50 0;
#X connect 45 0 44 1;
#X connect 46 0 50 0;
#X connect 47 0 46 1;
#X connect 48 0 50 0;
#X connect 49 0 48 1;
#X connect 50 0 51 0;
#X connect 50 0 55 0;
#X connect 52 0 16 0;
#X connect 52 1 20 0;
#X connect 52 2 22 0;
#X connect 52 3 24 0;
#X connect 52 4 26 0;
#X connect 52 5 28 0;
#X connect 52 6 30 0;
#X connect 52 7 32 0;
#X connect 52 8 34 0;
#X connect 52 9 36 0;
#X connect 52 10 38 0;
#X connect 52 11 40 0;
#X connect 52 12 42 0;
#X connect 52 13 44 0;
#X connect 52 14 46 0;
#X connect 52 15 48 0;
#X connect 57 0 143 0;
#X connect 58 0 62 1;
#X connect 59 0 63 1;
#X connect 60 0 64 1;
#X connect 61 0 65 1;
#X connect 62 0 8 0;
#X connect 63 0 8 0;
#X connect 64 0 8 0;
#X connect 65 0 8 0;
#X connect 66 0 62 0;
#X connect 67 0 63 0;
#X connect 68 0 64 0;
#X connect 69 0 65 0;
#X connect 70 0 148 0;
#X connect 70 1 149 0;
#X connect 70 2 150 0;
#X connect 71 0 8 0;
#X connect 72 0 74 0;
#X connect 72 0 108 0;
#X connect 72 0 136 0;
#X connect 72 0 132 0;
#X connect 72 0 128 0;
#X connect 72 0 124 0;
#X connect 72 0 120 0;
#X connect 72 0 116 0;
#X connect 72 0 112 0;
#X connect 72 0 104 0;
#X connect 72 0 100 0;
#X connect 72 0 96 0;
#X connect 72 0 92 0;
#X connect 72 0 88 0;
#X connect 72 0 84 0;
#X connect 72 0 80 0;
#X connect 73 0 78 0;
#X connect 74 0 73 0;
#X connect 75 0 74 1;
#X connect 76 0 77 0;
#X connect 77 0 75 0;
#X connect 77 0 81 0;
#X connect 77 0 105 0;
#X connect 77 0 101 0;
#X connect 77 0 97 0;
#X connect 77 0 93 0;
#X connect 77 0 89 0;
#X connect 77 0 85 0;
#X connect 77 0 137 0;
#X connect 77 0 133 0;
#X connect 77 0 129 0;
#X connect 77 0 125 0;
#X connect 77 0 121 0;
#X connect 77 0 117 0;
#X connect 77 0 113 0;
#X connect 77 0 109 0;
#X connect 78 0 17 0;
#X connect 79 0 82 0;
#X connect 80 0 79 0;
#X connect 81 0 80 1;
#X connect 82 0 21 0;
#X connect 83 0 86 0;
#X connect 84 0 83 0;
#X connect 85 0 84 1;
#X connect 86 0 23 0;
#X connect 87 0 90 0;
#X connect 88 0 87 0;
#X connect 89 0 88 1;
#X connect 90 0 25 0;
#X connect 91 0 94 0;
#X connect 92 0 91 0;
#X connect 93 0 92 1;
#X connect 94 0 27 0;
#X connect 95 0 98 0;
#X connect 96 0 95 0;
#X connect 97 0 96 1;
#X connect 98 0 29 0;
#X connect 99 0 102 0;
#X connect 100 0 99 0;
#X connect 101 0 100 1;
#X connect 102 0 31 0;
#X connect 103 0 106 0;
#X connect 104 0 103 0;
#X connect 105 0 104 1;
#X connect 106 0 33 0;
#X connect 107 0 110 0;
#X connect 108 0 107 0;
#X connect 109 0 108 1;
#X connect 110 0 35 0;
#X connect 111 0 114 0;
#X connect 112 0 111 0;
#X connect 113 0 112 1;
#X connect 114 0 37 0;
#X connect 115 0 118 0;
#X connect 116 0 115 0;
#X connect 117 0 116 1;
#X connect 118 0 39 0;
#X connect 119 0 122 0;
#X connect 120 0 119 0;
#X connect 121 0 120 1;
#X connect 122 0 41 0;
#X connect 123 0 126 0;
#X connect 124 0 123 0;
#X connect 125 0 124 1;
#X connect 126 0 43 0;
#X connect 127 0 130 0;
#X connect 128 0 127 0;
#X connect 129 0 128 1;
#X connect 130 0 45 0;
#X connect 131 0 134 0;
#X connect 132 0 131 0;
#X connect 133 0 132 1;
#X connect 134 0 47 0;
#X connect 135 0 138 0;
#X connect 136 0 135 0;
#X connect 137 0 136 1;
#X connect 138 0 49 0;
#X connect 139 0 76 0;
#X connect 140 0 17 0;
#X connect 140 0 49 0;
#X connect 140 0 47 0;
#X connect 140 0 45 0;
#X connect 140 0 43 0;
#X connect 140 0 41 0;
#X connect 140 0 39 0;
#X connect 140 0 37 0;
#X connect 140 0 35 0;
#X connect 140 0 33 0;
#X connect 140 0 31 0;
#X connect 140 0 29 0;
#X connect 140 0 27 0;
#X connect 140 0 25 0;
#X connect 140 0 23 0;
#X connect 140 0 21 0;
#X connect 141 0 140 0;
#X connect 142 0 72 0;
#X connect 143 0 145 0;
#X connect 143 0 147 0;
#X connect 144 0 143 1;
#X connect 145 0 143 1;
#X connect 146 0 6 0;
#X connect 147 0 146 0;
#X connect 148 0 147 1;
#X connect 149 0 147 1;
#X connect 150 0 147 1;
#X connect 151 0 152 0;
#X connect 152 0 153 0;
#X connect 153 0 10 0;
#X coords 0 -1 1 1 245 112 2 100 100;
