#N canvas 0 23 1440 817 12;
#X obj 63 266 inlet~;
#X obj 126 477 *~;
#X obj 105 103 tgl 15 0 empty empty dry_signal_on/off 17 7 0 10 -262144
-1 -1 0 1;
#X obj 126 388 *~ 0;
#X obj 137 325 delwrite~ \$0-aaa;
#X obj 124 571 outlet~;
#X obj 140 443 delread~ \$0-aaa 5;
#X floatatom 167 411 5 0 0 0 - - -;
#X obj 106 163 hsl 128 15 1 5000 1 0 empty empty delay_msec -2 -8 0
10 -262144 -1 -1 3200 0;
#X obj 176 292 *~;
#X floatatom 207 294 5 0 0 0 - - -;
#X obj 106 135 hsl 128 15 0 1.1 0 0 empty empty feedback -2 -8 0 10
-262144 -1 -1 0 0;
#X floatatom 172 475 5 0 0 0 - - -;
#X obj 106 191 hsl 128 15 0 1.1 0 0 empty empty output -2 -8 0 10 -262144
-1 -1 5600 0;
#X obj 123 538 clip~ -1.1 1.1;
#X obj 112 35 inlet;
#X obj 159 47 inlet;
#X obj 208 58 inlet;
#X connect 0 0 4 0;
#X connect 0 0 3 0;
#X connect 1 0 14 0;
#X connect 1 0 9 0;
#X connect 2 0 3 1;
#X connect 3 0 1 0;
#X connect 6 0 1 0;
#X connect 7 0 6 0;
#X connect 8 0 7 0;
#X connect 9 0 4 0;
#X connect 10 0 9 1;
#X connect 11 0 10 0;
#X connect 12 0 1 1;
#X connect 13 0 12 0;
#X connect 14 0 5 0;
#X connect 15 0 11 0;
#X connect 16 0 8 0;
#X connect 17 0 13 0;
#X coords 0 -1 1 1 138 110 2 100 100;
