#N canvas 0 23 1440 815 12;
#X obj 101 103 cnv 15 200 100 empty empty empty 20 12 0 14 -233017
-66577 0;
#X obj 68 21 inlet~;
#X obj 68 43 *~;
#X floatatom 102 104 5 0 3 0 - - -;
#X obj -51 176 clip~, f 11;
#X obj -35 224 *~;
#X obj -35 248 *~;
#X obj 70 380 outlet~;
#X obj 145 107 hsl 128 15 0 2 0 0 empty \$0-lb0 input_volume 2 8 0
10 -191407 -1 -1 0 0;
#X obj 145 146 hsl 128 15 5000 0 0 0 empty \$0-lb5000 lowpass_filter
2 8 0 10 -191407 -1 -1 0 0;
#X floatatom 102 124 5 0 0 0 - - -;
#X obj 145 127 hsl 128 15 1 0.01 0 0 empty \$0-lb1 clip 2 8 0 10 -191407
-1 -1 0 0;
#X obj 8 131 * -1;
#X floatatom 102 143 5 0 0 0 - - -;
#X floatatom 32 225 5 0 0 0 - - -;
#X obj 278 18 inlet~;
#X obj 279 43 *~;
#X obj 384 169 clip~, f 11;
#X obj 408 207 *~;
#X obj 409 247 *~;
#X obj 452 130 * -1;
#X obj 240 380 outlet~;
#X obj -35 272 hip~;
#X obj -35 296 lop~;
#X obj 409 270 hip~;
#X obj 409 294 lop~;
#X obj 145 165 hsl 128 15 0 8000 0 0 empty \$0-lb0 highpass_filter
2 8 0 10 -191407 -1 -1 0 0;
#X floatatom 102 162 5 0 0 0 - - -;
#X obj 145 184 hsl 128 15 0 2 0 0 empty \$0-lb0 output_volume 2 8 0
10 -191407 -1 -1 0 0;
#X floatatom 102 181 5 0 3 0 - - -;
#X text 278 103 D;
#X text 284 112 I;
#X text 276 119 S;
#X text 286 128 T;
#X text 288 148 R;
#X text 278 138 O;
#X text 282 158 T;
#X text 286 167 I;
#X text 283 177 O;
#X text 288 184 N;
#X obj 637 44 loadbang;
#X msg 643 71 5000;
#X msg 682 70 1;
#X msg 713 70 0;
#X text 290 89 _;
#X text 102 89 _;
#X text 102 185 _;
#X text 290 185 _;
#X text 187 119 S;
#X text 201 120 T;
#X text 215 121 E;
#X text 230 121 R;
#X text 243 122 E;
#X text 256 123 O;
#X obj 643 125 s \$0-lb5000;
#X obj 733 104 s \$0-lb0;
#X obj 662 101 s \$0-lb1;
#X obj 20 203 pow -0.4;
#X text 249 137 A;
#X text 259 147 M;
#X text 265 162 P;
#X connect 1 0 2 0;
#X connect 2 0 4 0;
#X connect 3 0 2 1;
#X connect 3 0 16 1;
#X connect 4 0 5 0;
#X connect 5 0 6 0;
#X connect 6 0 22 0;
#X connect 8 0 3 0;
#X connect 9 0 13 0;
#X connect 10 0 4 2;
#X connect 10 0 12 0;
#X connect 10 0 20 0;
#X connect 10 0 17 2;
#X connect 10 0 57 0;
#X connect 11 0 10 0;
#X connect 12 0 4 1;
#X connect 13 0 25 1;
#X connect 13 0 23 1;
#X connect 14 0 5 1;
#X connect 14 0 18 1;
#X connect 15 0 16 0;
#X connect 16 0 17 0;
#X connect 17 0 18 0;
#X connect 18 0 19 0;
#X connect 19 0 24 0;
#X connect 20 0 17 1;
#X connect 22 0 23 0;
#X connect 23 0 7 0;
#X connect 24 0 25 0;
#X connect 25 0 21 0;
#X connect 26 0 27 0;
#X connect 27 0 22 1;
#X connect 27 0 24 1;
#X connect 28 0 29 0;
#X connect 29 0 6 1;
#X connect 29 0 19 1;
#X connect 40 0 41 0;
#X connect 40 0 42 0;
#X connect 40 0 43 0;
#X connect 41 0 54 0;
#X connect 42 0 56 0;
#X connect 43 0 55 0;
#X connect 57 0 14 0;
#X coords 0 -1 1 1 200 107 2 100 100;
