#N canvas 0 0 1440 900 12;
#X obj 100 104 cnv 15 176 328 empty empty empty 20 12 0 14 -204786
-66577 0;
#X obj 144 219 hsl 128 15 0 2000 0 0 empty empty pitch 2 8 0 10 -261682
-1 -1 0 0;
#X floatatom 102 216 5 0 0 0 - - -;
#X obj -39 245 *;
#X obj -102 354 +~;
#X obj -102 376 osc~;
#X obj -102 400 clip~;
#X obj -102 433 *~;
#X obj -78 619 *~;
#X obj 144 399 hsl 128 15 0 1 0 0 empty empty volume 2 8 0 10 -261682
-1 -1 0 0;
#X floatatom 102 396 5 0 2 0 - - -;
#X obj -37 674 outlet~;
#X floatatom 102 296 5 0 0 0 - - -;
#X obj 144 299 hsl 128 15 1.01 0.01 0 0 empty \$0-lb1 clip 2 8 0 10
-261682 -1 -1 0 0;
#X floatatom -43 429 5 0 0 0 - - -;
#X obj -64 375 * -1;
#X obj -103 270 osc~;
#X obj 144 239 hsl 128 15 0.01 6 1 0 empty empty ratio 2 8 0 10 -261682
-1 -1 0 0;
#X floatatom 102 236 5 0 0 0 - - -;
#X obj 144 279 hsl 128 15 0 600 0 0 empty empty amplitude 2 8 0 10
-261682 -1 -1 0 0;
#X floatatom 102 276 5 0 0 0 - - -;
#X obj -103 304 *~;
#X obj -102 177 t b;
#X obj -55 407 pow -0.8;
#X obj -27 86 inlet;
#X obj -87 488 *~;
#X obj 15 594 vline~;
#X obj 27 542 pack f f f;
#X msg 27 566 1 \$2 0 \, 0 \$3 \$2;
#X obj 144 339 hsl 128 15 10 3000 0 0 empty empty attack 2 8 0 10 -261682
-1 -1 0 0;
#X obj 144 359 hsl 128 15 10 3000 0 0 empty empty decay 2 8 0 10 -261682
-1 -1 0 0;
#X floatatom 102 336 5 0 0 0 - - -;
#X floatatom 102 356 5 0 0 0 - - -;
#X obj 259 319 tgl 15 0 empty empty empty 17 7 0 10 -228856 -1 -1 0
1;
#X obj 144 319 hsl 110 15 0.1 5000 0 0 empty empty rebang_time_msec
2 8 0 10 -228856 -1 -1 0 0;
#X floatatom 102 316 5 0 0 0 - - -;
#X obj -14 513 metro 100;
#X obj 260 118 bng 15 250 50 0 empty empty empty 17 7 0 10 -191407
-1 -1;
#X obj 144 379 hsl 128 15 1 0 0 0 empty empty env_(osc_out) 2 8 0 10
-261682 -1 -1 0 0;
#X floatatom 102 376 5 0 2 0 - - -;
#X obj -121 552 *~;
#X obj -80 551 *~;
#X obj -170 513 * -1;
#X obj -170 537 + 1;
#X obj 259 179 tgl 15 0 empty empty empty 17 7 0 10 -228856 -1 -1 0
1;
#X obj 144 179 hsl 110 15 0.1 5000 0 0 empty empty sequence_time 2
8 0 10 -228856 -1 -1 0 0;
#X floatatom 102 176 5 0 0 0 - - -;
#X obj 443 182 metro 100;
#X obj 443 204 counter;
#X obj 144 199 hsl 128 15 0 50 0 0 empty empty root 2 8 0 10 -261682
-1 -1 0 0;
#X floatatom 102 196 5 0 0 0 - - -;
#X floatatom 102 134 4 0 0 2 seq_voices_1_-_10_-> - -;
#X floatatom 135 134 4 0 0 0 - - -;
#X floatatom 168 134 4 0 0 0 - - -;
#X floatatom 201 134 4 0 0 0 - - -;
#X floatatom 234 134 4 0 0 0 - - -;
#X floatatom 102 155 4 0 0 0 - - -;
#X floatatom 135 155 4 0 0 0 - - -;
#X floatatom 168 155 4 0 0 0 - - -;
#X obj 460 63 +;
#X obj 444 228 % 10;
#X obj 478 254 sel 0 1 2 3 4 5 6 7 8 9, f 30;
#X floatatom 201 155 4 0 0 0 - - -;
#X floatatom 234 155 4 0 0 0 - - -;
#X floatatom 186 104 2 0 0 0 - - -;
#X obj 460 107 mtof;
#X floatatom 460 131 8 0 0 0 - - -;
#X obj 384 529 metro 100;
#X obj 259 259 tgl 15 0 empty empty empty 17 7 0 10 -228856 -1 -1 0
1;
#X obj 387 573 snapshot~;
#X obj 496 529 osc~;
#X floatatom 387 597 5 0 0 0 - - -;
#X obj 144 259 hsl 110 15 0.01 2 0 0 empty empty lfo_speed_(ratio)
2 8 0 10 -228856 -1 -1 0 0;
#X floatatom 102 256 5 0 0 0 - - -;
#X obj 387 620 + 1;
#X obj 387 644 * 3;
#X obj 273 49 inlet;
#X text 202 415 fmsynth1;
#X text 101 415 output~;
#X text 100 103 pitch in;
#X text 200 103 trigger in;
#X obj 719 374 loadbang;
#X obj 537 76 t b;
#X obj 521 104 f;
#X obj 444 252 + 1;
#X obj 340 148 spigot;
#X obj 242 117 tgl 15 0 empty empty empty 17 7 0 10 -262144 -1 -1 0
1;
#X obj 113 64 inlet;
#X obj 180 63 inlet;
#X connect 1 0 2 0;
#X connect 2 0 3 0;
#X connect 2 0 4 1;
#X connect 3 0 16 0;
#X connect 4 0 5 0;
#X connect 5 0 6 0;
#X connect 6 0 7 0;
#X connect 7 0 25 0;
#X connect 7 0 40 0;
#X connect 8 0 11 0;
#X connect 9 0 10 0;
#X connect 10 0 8 1;
#X connect 12 0 15 0;
#X connect 12 0 6 2;
#X connect 12 0 23 0;
#X connect 13 0 12 0;
#X connect 14 0 7 1;
#X connect 15 0 6 1;
#X connect 16 0 21 0;
#X connect 17 0 18 0;
#X connect 18 0 3 1;
#X connect 18 0 22 0;
#X connect 19 0 20 0;
#X connect 20 0 21 1;
#X connect 21 0 4 0;
#X connect 22 0 2 0;
#X connect 23 0 14 0;
#X connect 24 0 1 0;
#X connect 25 0 41 0;
#X connect 26 0 25 1;
#X connect 27 0 28 0;
#X connect 28 0 26 0;
#X connect 29 0 27 1;
#X connect 29 0 31 0;
#X connect 30 0 27 2;
#X connect 30 0 32 0;
#X connect 33 0 36 0;
#X connect 34 0 35 0;
#X connect 35 0 36 1;
#X connect 36 0 27 0;
#X connect 37 0 27 0;
#X connect 37 0 85 0;
#X connect 38 0 39 0;
#X connect 39 0 41 1;
#X connect 39 0 42 0;
#X connect 40 0 8 0;
#X connect 41 0 8 0;
#X connect 42 0 43 0;
#X connect 43 0 40 1;
#X connect 44 0 47 0;
#X connect 45 0 46 0;
#X connect 46 0 47 1;
#X connect 47 0 48 0;
#X connect 47 0 37 0;
#X connect 48 0 60 0;
#X connect 48 0 82 0;
#X connect 49 0 50 0;
#X connect 50 0 59 1;
#X connect 51 0 59 0;
#X connect 52 0 59 0;
#X connect 53 0 59 0;
#X connect 54 0 59 0;
#X connect 55 0 59 0;
#X connect 56 0 59 0;
#X connect 57 0 59 0;
#X connect 58 0 59 0;
#X connect 59 0 83 1;
#X connect 60 0 61 0;
#X connect 60 0 84 0;
#X connect 61 0 51 0;
#X connect 61 1 52 0;
#X connect 61 2 53 0;
#X connect 61 3 54 0;
#X connect 61 4 55 0;
#X connect 61 5 56 0;
#X connect 61 6 57 0;
#X connect 61 7 58 0;
#X connect 61 8 62 0;
#X connect 61 9 63 0;
#X connect 62 0 59 0;
#X connect 63 0 59 0;
#X connect 65 0 1 0;
#X connect 65 0 66 0;
#X connect 67 0 69 0;
#X connect 68 0 67 0;
#X connect 69 0 71 0;
#X connect 70 0 69 0;
#X connect 71 0 74 0;
#X connect 72 0 70 0;
#X connect 72 0 73 0;
#X connect 74 0 75 0;
#X connect 75 0 17 0;
#X connect 76 0 37 0;
#X connect 81 0 34 0;
#X connect 81 0 45 0;
#X connect 81 0 49 0;
#X connect 81 0 1 0;
#X connect 81 0 17 0;
#X connect 81 0 72 0;
#X connect 81 0 19 0;
#X connect 81 0 13 0;
#X connect 81 0 29 0;
#X connect 81 0 30 0;
#X connect 81 0 38 0;
#X connect 81 0 9 0;
#X connect 82 0 83 0;
#X connect 83 0 65 0;
#X connect 84 0 64 0;
#X connect 85 0 48 0;
#X connect 86 0 85 1;
#X connect 87 0 9 0;
#X connect 88 0 30 0;
#X coords 0 -1 1 1 176 336 1 100 100;
