#N canvas 0 0 1440 900 12;
#X floatatom 41 834 10 0 0 0 - - -;
#X floatatom 102 344 5 0 0 0 - - -;
#X obj 41 949 *~ 0.5;
#X msg 41 900 next \$1;
#X obj 41 713 phasor~;
#X obj 41 759 *~;
#X floatatom 78 767 10 0 0 0 - - -;
#X obj 41 801 snapshot~;
#X obj 312 245 tgl 15 0 empty empty on/off 17 7 0 10 -262144 -1 -1
0 1;
#X obj 180 720 metro 125;
#X floatatom 41 597 5 0 0 0 - - -;
#X obj 42 574 expr $f2 / $f1;
#X obj 40 645 * 1, f 6;
#X obj 46 620 t b f;
#X floatatom 237 293 5 0 0 0 - - -;
#X floatatom 239 693 5 0 0 0 - - -;
#X obj 180 744 random 10;
#X obj 180 779 + 50;
#X floatatom 237 395 5 0 0 0 - - -;
#X floatatom 102 394 5 0 0 0 - - -;
#X obj 105 377 hsl 128 15 10 2000 1 0 empty empty rate -2 -8 0 10 -262144
-1 -1 0 0;
#X obj 105 327 hsl 128 15 20 2000 0 0 empty \$0-lb600 lenght -2 -8
0 10 -262144 -1 -1 3720 0;
#X obj 240 276 hsl 128 15 -2 2 0 0 empty \$0-lb.25 playback -2 -8 0
10 -262144 -1 -1 7144 0;
#X floatatom 237 344 5 0 0 0 - - -;
#X obj 240 327 hsl 128 15 0.1 2 0 0 empty \$0-lb1 pitch -2 -8 0 10
-262144 -1 -1 6016 0;
#X obj 287 689 s transL;
#N canvas 0 24 1440 817 load 0;
#X obj 27 22 loadbang;
#X msg 27 69 600;
#X msg 86 70 1;
#X msg 139 77 0;
#X msg 196 89 0.25;
#X obj 27 46 t b b b b b, f 33;
#X obj 249 80 samplerate~;
#X floatatom 247 104 5 0 0 0 - - -;
#X obj 249 127 s samplerate;
#X obj 94 24 bng 15 250 50 0 empty empty empty 17 7 0 10 -262144 -1
-1;
#X obj 173 130 s \$0-lb.25;
#X obj 138 104 s \$0-lb0;
#X obj 88 125 s \$0-lb1;
#X obj 29 100 s \$0-lb600;
#X connect 0 0 5 0;
#X connect 1 0 13 0;
#X connect 2 0 12 0;
#X connect 3 0 11 0;
#X connect 4 0 10 0;
#X connect 5 0 1 0;
#X connect 5 1 2 0;
#X connect 5 2 3 0;
#X connect 5 3 4 0;
#X connect 5 4 6 0;
#X connect 6 0 7 0;
#X connect 7 0 8 0;
#X connect 9 0 5 0;
#X restore 272 65 pd load;
#X obj 232 647 s durL;
#X obj 42 550 receive lenghtL;
#X obj 78 743 r lenghtL;
#X obj 41 925 clone graaaL 16;
#X obj 105 276 hsl 128 15 0 2 0 0 empty empty vol_L -2 -8 0 10 -262144
-1 -1 0 0;
#X floatatom 102 293 5 0 0 0 - - -;
#X obj 156 549 r samplerate;
#X floatatom 156 573 5 0 0 0 - - -;
#N canvas 0 22 450 278 (subpatch) 0;
#X array graL 792192 float 2;
#X coords 0 1 792192 -1 200 140 1 0 0;
#X restore 104 116 graph;
#N canvas 0 22 450 278 (subpatch) 0;
#X array graR 792192 float 2;
#X coords 0 1 792192 -1 200 140 1;
#X restore 439 119 graph;
#X obj 371 210 bng 15 250 50 0 empty empty both 17 7 0 10 -262144 -1
-1;
#N canvas 0 23 1440 817 arrays 0;
#X obj 33 29 inlet, f 6;
#X obj 81 29 inlet, f 6;
#X obj 131 29 inlet, f 6;
#X obj 33 83 openpanel;
#X msg 33 109 read -resize \$1 graL;
#X obj 67 137 openpanel;
#X msg 67 163 read -resize \$1 graR;
#X obj 117 58 openpanel;
#X msg 117 84 read -resize \$1 graL;
#X obj 37 235 soundfiler;
#X obj 123 235 soundfiler;
#X floatatom 37 259 5 0 0 0 - - -;
#X floatatom 123 259 5 0 0 0 - - -;
#X obj 37 282 s lenghtL;
#X obj 123 282 s lenghtR;
#X obj 270 28 inlet~;
#X obj 514 33 sel 1;
#X msg 458 86 start;
#X msg 488 134 stop;
#X obj 440 33 tgl 15 0 empty \$0-recgra empty 17 7 0 10 -262144 -1
-1 0 1;
#X obj 488 174 writesf~;
#X obj 495 57 t b b;
#X obj 440 53 change;
#X obj 543 61 t b b b;
#X obj 543 84 delay 3;
#X obj 598 84 delay 3;
#X msg 59 198 read -resize graaa0.1.wav graL;
#X msg 286 197 read -resize graaa0.1.wav graR;
#X floatatom 353 96 5 0 0 0 - - -;
#X obj 353 74 r \$0-od_vol;
#X obj 328 118 *~;
#X obj 265 94 catch~ graod;
#X msg 487 113 open graaa0.1.wav;
#X connect 0 0 3 0;
#X connect 1 0 7 0;
#X connect 2 0 5 0;
#X connect 3 0 4 0;
#X connect 3 0 6 0;
#X connect 4 0 9 0;
#X connect 5 0 6 0;
#X connect 6 0 10 0;
#X connect 7 0 8 0;
#X connect 8 0 9 0;
#X connect 9 0 11 0;
#X connect 10 0 12 0;
#X connect 11 0 13 0;
#X connect 12 0 14 0;
#X connect 15 0 20 0;
#X connect 16 0 21 0;
#X connect 16 1 23 0;
#X connect 17 0 20 0;
#X connect 18 0 20 0;
#X connect 19 0 22 0;
#X connect 21 0 17 0;
#X connect 21 1 32 0;
#X connect 22 0 16 0;
#X connect 23 0 24 0;
#X connect 23 1 25 0;
#X connect 23 2 18 0;
#X connect 24 0 26 0;
#X connect 25 0 27 0;
#X connect 26 0 9 0;
#X connect 27 0 10 0;
#X connect 28 0 30 1;
#X connect 29 0 28 0;
#X connect 30 0 20 0;
#X connect 31 0 30 0;
#X connect 32 0 20 0;
#X restore 341 75 pd arrays;
#X f 12;
#X obj 346 210 bng 15 250 50 0 empty empty L 17 7 0 10 -262144 -1 -1
;
#X obj 414 210 bng 15 250 50 0 empty empty R 17 7 0 10 -262144 -1 -1
;
#X floatatom 394 836 10 0 0 0 - - -;
#X floatatom 373 344 5 0 0 0 - - -;
#X obj 394 951 *~ 0.5;
#X msg 393 903 next \$1;
#X obj 394 715 phasor~;
#X obj 394 761 *~;
#X floatatom 431 769 10 0 0 0 - - -;
#X obj 394 803 snapshot~;
#X obj 385 244 tgl 15 0 empty empty on/off 17 7 0 10 -262144 -1 -1
0 1;
#X obj 521 722 metro 125;
#X floatatom 393 602 5 0 0 0 - - -;
#X obj 393 579 expr $f2 / $f1;
#X obj 393 647 * 1, f 6;
#X obj 399 622 t b f;
#X floatatom 508 293 5 0 0 0 - - -;
#X floatatom 580 695 5 0 0 0 - - -;
#X obj 521 746 random 10;
#X obj 521 781 + 50;
#X floatatom 508 394 5 0 0 0 - - -;
#X floatatom 373 394 5 0 0 0 - - -;
#X obj 376 377 hsl 128 15 10 2000 1 0 empty empty rate -2 -8 0 10 -262144
-1 -1 0 0;
#X obj 376 327 hsl 128 15 20 2000 0 0 empty \$0-lb600 lenght -2 -8
0 10 -262144 -1 -1 3720 0;
#X obj 511 276 hsl 128 15 -2 2 0 0 empty \$0-lb.25 playback -2 -8 0
10 -262144 -1 -1 7144 0;
#X floatatom 508 345 5 0 0 0 - - -;
#X obj 511 327 hsl 128 15 0.1 2 0 0 empty \$0-lb1 pitch -2 -8 0 10
-262144 -1 -1 6016 0;
#X obj 431 745 r lenghtL;
#X obj 376 276 hsl 128 15 0 2 0 0 empty empty vol_R -2 -8 0 10 -262144
-1 -1 0 0;
#X floatatom 373 293 5 0 0 0 - - -;
#X obj 507 554 r samplerate;
#X floatatom 507 578 5 0 0 0 - - -;
#X obj 394 927 clone graaaR 16;
#X obj 628 691 s transR;
#X obj 573 649 s durR;
#X obj 393 555 receive lenghtR;
#X obj 384 1025 dac~ 2;
#X obj 38 1034 dac~ 1;
#X obj 312 227 tgl 15 0 empty empty both_on/off 17 7 0 10 -262144 -1
-1 0 1;
#X obj 45 1064 outlet~;
#X obj 403 1058 outlet~;
#X obj 385 981 *~ 1;
#X obj 53 992 *~ 1;
#X obj 281 502 tgl 15 0 empty empty empty 17 7 0 10 -262144 -1 -1 1
1;
#X obj 304 502 tgl 15 0 empty empty empty 17 7 0 10 -262144 -1 -1 1
1;
#X obj 271 472 s both;
#X obj 509 646 r both;
#X obj 165 643 r both;
#X obj 240 377 hsl 128 15 20 2000 1 0 empty empty jitter -2 -8 0 10
-262144 -1 -1 0 0;
#X obj 511 377 hsl 128 15 20 2000 1 0 empty empty jitter -2 -8 0 10
-262144 -1 -1 0 0;
#X obj 309 113 tgl 15 0 empty \$0-lb1 dac~_on/off 17 7 0 10 -262144
-1 -1 1 1;
#X text 307 208 load:;
#X text 100 412 (~L);
#X text 605 412 (~R);
#X text 336 99 graaaHz;
#X obj 227 1017 *~ 1;
#X obj 313 143 hsl 120 15 0 1 0 0 empty \$0-lb1 dac~_vol -2 -8 0 10
-262144 -1 -1 11900 0;
#X floatatom 215 984 5 0 0 0 - - -;
#X obj 272 1015 *~ 1;
#X obj 617 480 inlet;
#X obj 461 25 inlet~;
#X obj 313 190 hsl 120 15 0 1 0 0 \$0-od_vol \$0-lb0 overdub~_vol -2
-8 0 10 -262144 -1 -1 0 0;
#X obj 309 162 tgl 15 0 \$0-recgra empty rec~ 17 7 0 10 -262144 -1
-1 0 1;
#X obj 259 1075 throw~ graod;
#X obj 477 859 random;
#X floatatom 509 413 5 0 0 0 randomize - -;
#X floatatom 477 883 5 0 0 0 - - -;
#X obj 395 880 +;
#X obj 477 836 t b;
#X obj 119 858 random;
#X floatatom 237 413 5 0 0 1 randomize - -;
#X floatatom 119 882 5 0 0 0 - - -;
#X obj 41 876 +;
#X obj 119 835 t b;
#X obj 448 981 r \$0-lb1;
#X obj 116 993 r \$0-lb1;
#X connect 0 0 111 0;
#X connect 0 0 112 0;
#X connect 1 0 27 0;
#X connect 2 0 78 0;
#X connect 2 0 81 0;
#X connect 2 0 102 0;
#X connect 3 0 30 0;
#X connect 4 0 5 0;
#X connect 5 0 7 0;
#X connect 6 0 5 1;
#X connect 7 0 0 0;
#X connect 8 0 9 0;
#X connect 9 0 7 0;
#X connect 9 0 16 0;
#X connect 10 0 12 0;
#X connect 11 0 10 0;
#X connect 12 0 4 0;
#X connect 13 0 12 0;
#X connect 13 1 12 1;
#X connect 14 0 13 0;
#X connect 15 0 9 1;
#X connect 16 0 17 0;
#X connect 17 0 15 0;
#X connect 18 0 16 1;
#X connect 19 0 17 1;
#X connect 20 0 19 0;
#X connect 21 0 1 0;
#X connect 22 0 14 0;
#X connect 23 0 25 0;
#X connect 24 0 23 0;
#X connect 28 0 11 0;
#X connect 29 0 6 0;
#X connect 30 0 2 0;
#X connect 31 0 32 0;
#X connect 32 0 2 1;
#X connect 33 0 34 0;
#X connect 34 0 11 1;
#X connect 37 0 38 0;
#X connect 39 0 38 1;
#X connect 40 0 38 2;
#X connect 41 0 106 0;
#X connect 41 0 107 0;
#X connect 42 0 73 0;
#X connect 43 0 79 0;
#X connect 43 0 80 0;
#X connect 43 0 102 0;
#X connect 44 0 71 0;
#X connect 45 0 46 0;
#X connect 46 0 48 0;
#X connect 47 0 46 1;
#X connect 48 0 41 0;
#X connect 49 0 50 0;
#X connect 50 0 48 0;
#X connect 50 0 57 0;
#X connect 51 0 53 0;
#X connect 52 0 51 0;
#X connect 53 0 45 0;
#X connect 54 0 53 0;
#X connect 54 1 53 1;
#X connect 55 0 54 0;
#X connect 56 0 50 1;
#X connect 57 0 58 0;
#X connect 58 0 56 0;
#X connect 59 0 57 1;
#X connect 60 0 58 1;
#X connect 61 0 60 0;
#X connect 62 0 42 0;
#X connect 63 0 55 0;
#X connect 64 0 72 0;
#X connect 65 0 64 0;
#X connect 66 0 47 0;
#X connect 67 0 68 0;
#X connect 68 0 43 1;
#X connect 69 0 70 0;
#X connect 70 0 52 1;
#X connect 71 0 43 0;
#X connect 74 0 52 0;
#X connect 77 0 84 0;
#X connect 80 0 97 0;
#X connect 81 0 94 0;
#X connect 82 0 81 1;
#X connect 83 0 80 1;
#X connect 85 0 49 0;
#X connect 86 0 8 0;
#X connect 87 0 18 0;
#X connect 88 0 59 0;
#X connect 89 0 82 0;
#X connect 89 0 83 0;
#X connect 94 0 76 0;
#X connect 95 0 96 0;
#X connect 96 0 94 1;
#X connect 96 0 97 1;
#X connect 97 0 75 0;
#X connect 98 0 48 0;
#X connect 98 0 7 0;
#X connect 99 0 38 3;
#X connect 103 0 105 0;
#X connect 104 0 103 1;
#X connect 105 0 106 1;
#X connect 106 0 44 0;
#X connect 107 0 103 0;
#X connect 108 0 110 0;
#X connect 109 0 108 1;
#X connect 110 0 111 1;
#X connect 111 0 3 0;
#X connect 112 0 108 0;
#X connect 113 0 83 0;
#X connect 114 0 82 0;
#X coords 0 -1 1 1 543 332 2 100 100;
