#N canvas 197 46 880 782 12;
#X obj 82 462 line~;
#X msg 81 418 \$1 \, \$2 \$3;
#X floatatom 98 137 10 0 0 0 - - -;
#X obj 98 159 t f f;
#X obj 93 370 pack f f f;
#X obj 127 342 +;
#X floatatom 187 206 5 0 0 0 - - -;
#X obj 185 268 * 44.1;
#X obj 244 183 loadbang;
#X obj 244 207 samplerate~;
#X obj 244 231 / 1000;
#X obj 104 53 inlet;
#X obj 80 611 outlet~;
#X obj 101 89 t f b, f 38;
#X obj 360 247 t b b;
#X obj 360 271 del 50;
#X msg 412 292 1;
#X msg 360 295 0;
#X obj 360 343 line~;
#X obj 78 560 *~, f 39;
#X obj 420 225 - 50;
#X obj 360 319 pack f 50;
#X obj 206 354 t b f;
#X obj 200 379 / 1;
#X obj 187 167 r durR;
#X obj 206 294 r transR;
#X obj 420 201 r durR;
#X obj 80 503 tabread4~ graR;
#X connect 0 0 27 0;
#X connect 1 0 0 0;
#X connect 2 0 3 0;
#X connect 3 0 4 0;
#X connect 3 1 5 0;
#X connect 4 0 1 0;
#X connect 5 0 4 1;
#X connect 6 0 7 0;
#X connect 6 0 23 0;
#X connect 7 0 5 1;
#X connect 8 0 9 0;
#X connect 9 0 10 0;
#X connect 10 0 7 1;
#X connect 11 0 13 0;
#X connect 13 0 2 0;
#X connect 13 1 14 0;
#X connect 14 0 15 0;
#X connect 14 1 16 0;
#X connect 15 0 17 0;
#X connect 16 0 21 0;
#X connect 17 0 21 0;
#X connect 18 0 19 1;
#X connect 19 0 12 0;
#X connect 20 0 15 1;
#X connect 21 0 18 0;
#X connect 22 0 23 0;
#X connect 22 1 23 1;
#X connect 23 0 4 2;
#X connect 24 0 6 0;
#X connect 25 0 22 0;
#X connect 26 0 20 0;
#X connect 27 0 19 0;
