#N canvas 0 26 1440 874 12;
#X obj 52 607 line;
#X obj 51 655 outlet;
#X obj 52 522 pack f f;
#X msg 52 546 \$1 \$2;
#X obj 150 498 delay;
#X obj 49 382 random;
#X obj 98 407 random;
#X obj 49 429 +;
#X obj 98 429 +;
#X obj 195 525 pack f f;
#X msg 195 549 \$1 \$2;
#X obj 151 377 random;
#X obj 196 405 random;
#X obj 147 429 +;
#X obj 196 429 +;
#X floatatom 49 453 5 0 0 0 - - -;
#X floatatom 98 453 5 0 0 0 - - -;
#X floatatom 147 453 5 0 0 0 - - -;
#X floatatom 196 453 5 0 0 0 - - -;
#X obj 105 122 hsl 89 15 0 1 0 0 empty empty empty -2 -8 0 10 -262144
-1 -1 8100 0;
#X msg 61 83 range 0 \$1;
#X floatatom 197 102 5 0 0 0 range_val - -;
#X floatatom 198 121 5 0 0 0 - - -;
#X obj 102 104 bng 15 250 50 0 empty empty empty 17 7 0 10 -262144
-1 -1;
#X obj 138 476 t b f;
#X floatatom 104 220 5 0 0 1 output - -;
#X obj 93 35 inlet;
#X obj 105 183 hsl 89 15 0 2000 0 0 empty empty empty -2 -8 0 10 -262144
-1 -1 700 0;
#X floatatom 198 161 5 0 0 0 time_range - -;
#X floatatom 198 181 5 0 0 0 - - -;
#X floatatom 197 201 5 0 0 0 minimum_time - -;
#X floatatom 198 141 5 0 0 0 minimum_val - -;
#X obj 131 255 * 1000;
#X obj 49 406 / 1000;
#X obj 151 401 / 1000;
#X msg 283 146 range 1 \$1;
#X obj 252 211 -;
#X connect 0 0 1 0;
#X connect 0 0 25 0;
#X connect 2 0 3 0;
#X connect 3 0 0 0;
#X connect 4 0 11 0;
#X connect 4 0 12 0;
#X connect 5 0 33 0;
#X connect 6 0 8 0;
#X connect 7 0 15 0;
#X connect 8 0 16 0;
#X connect 9 0 10 0;
#X connect 10 0 0 0;
#X connect 11 0 34 0;
#X connect 12 0 14 0;
#X connect 13 0 17 0;
#X connect 14 0 18 0;
#X connect 15 0 2 0;
#X connect 16 0 2 1;
#X connect 16 0 24 0;
#X connect 17 0 9 0;
#X connect 18 0 9 1;
#X connect 19 0 22 0;
#X connect 20 0 19 0;
#X connect 21 0 20 0;
#X connect 22 0 36 0;
#X connect 23 0 5 0;
#X connect 23 0 6 0;
#X connect 24 0 4 0;
#X connect 24 1 4 1;
#X connect 26 0 23 0;
#X connect 27 0 29 0;
#X connect 28 0 35 0;
#X connect 29 0 6 1;
#X connect 29 0 12 1;
#X connect 30 0 14 1;
#X connect 30 0 8 1;
#X connect 31 0 7 1;
#X connect 31 0 13 1;
#X connect 31 0 36 1;
#X connect 32 0 5 1;
#X connect 32 0 11 1;
#X connect 33 0 7 0;
#X connect 34 0 13 0;
#X connect 35 0 27 0;
#X connect 36 0 32 0;
#X coords 0 -1 1 1 137 141 2 100 100;
