#N canvas 0 0 1440 900 12;
#X obj 163 73 counter16x8;
#X obj 164 230 counter16;
#X text 75 79 counter16x8;
#X text 87 228 counter16;
#X text 436 168 outlet 1-8 -> clock output;
#X text 435 71 inlet 1 -> trigger clock (if other clock is used);
#X text 434 224 inlet 1 -> trigger clock;
#X text 434 239 inlet 2 -> trigger random steps;
#X text 434 252 inlet 3 -> milliseconds;
#X text 8 45 create objects named:;
#X text 437 319 outlet 1 -> counter;
#X text 415 148 <- outlet 1-8 on/off;
#X text 413 281 <- sequence;
#X text 437 334 outlet 2 -> sequenced bang;
#X text 434 102 inlet 3-10 -> trigger each output (on/off);
#X text 435 86 inlet 2 -> milliseconds;
#X obj 925 571 delz, f 12;
#X obj 927 713 dist1;
#X text 877 693 dist1;
#X text 809 711 audio amplifier;
#X obj 926 74 extloop0.1;
#X text 849 76 extloop0.1;
#X text 1069 561 inlet 1 -> audio in;
#X text 1068 665 outlet -> audio out;
#X text 1068 577 inlet 2-4 -> in faders order;
#X text 887 571 delz;
#X text 1155 524 outlet 3 -> playback toggle;
#X text 1155 510 outlet 2 -> record toggle;
#X text 108 -11 modular patches/building blocks:;
#X obj 165 376 r_line1;
#X obj 163 469 random_step10;
#X text 58 469 random_step10;
#X text 107 376 r_line1;
#X text 443 417 outlet 1 -> line value;
#X text 444 429 outlet 2 -> inlet bang;
#X text 439 390 fade in = milliseconds;
#X text 362 480 inlet 1 -> trigger/clock in;
#X text 361 493 inlet 2 -> milliseconds;
#X text 363 505 inlet 3 -> + value;
#X text 365 551 outlet -> line value out;
#X text 194 214 (all off);
#X obj 160 586 linez1;
#X text 111 586 linez1;
#X text 302 580 inlet -> trigger in;
#X text 1129 797 ~ stereo out;
#X text 1131 711 ~ stereo in;
#X obj 196 44 r \$0-lb1;
#X obj 380 -18 bng 15 250 50 0 empty empty empty 17 7 0 10 -262144
-1 -1;
#N canvas 0 26 1440 874 lb's 0;
#X obj 120 54 loadbang;
#X obj 120 78 s \$0-lb1;
#X obj 78 53 inlet;
#X connect 0 0 1 0;
#X connect 2 0 1 0;
#X restore 380 1 pd lb's;
#X obj 156 1033 fmsynth1;
#X obj 156 812 wssynth1;
#X text 294 812 inlet 1 -> frequency;
#X text 296 828 inlet 2 -> attack;
#X text 295 858 inlet 4 -> trigger;
#X text 295 842 inlet 3 -> decay;
#X text 301 985 ~ audio outlet;
#X text 338 1050 inlet 2 -> attack;
#X text 337 1064 inlet 3 -> decay;
#X text 339 1034 inlet 1 -> pitch;
#X text 92 816 wssynth1;
#X text 92 1030 fmsynth1;
#X text 338 1348 ~ audio outlet;
#X text 1125 966 ~ stereo out;
#X text 1127 864 ~ stereo in;
#X obj 918 866 dist2;
#X text 807 728 (no dac~);
#X text 800 865 audio amplifier;
#X text 870 847 dist2;
#X text 798 880 (with dac~ 1 2);
#X obj 669 1009 graaaHz;
#X text 608 1013 graaaHz;
#X text 1215 1005 inlet 1 -> ~audio;
#X text 1214 1021 inlet 2 -> trigger one step;
#X text 541 1034 not duplicable!!!;
#X text 1217 1326 ~audio outlet left & right;
#X text 1158 76 <- inlets;
#X text 439 375 careful with audio values!!!;
#X text 362 466 careful with audio values!!!;
#X text 106 2 (mutiply as u wish);
#X text 334 1079 inlet 4 -> trigger;
#X text 302 594 careful with audio values!!!;
#X connect 0 0 1 0;
#X connect 46 0 0 2;
#X connect 47 0 48 0;
