#N canvas 0 26 1440 817 12;
#X obj 100 103 cnv 15 270 60 empty empty empty 20 12 0 14 -232576 -66577
0;
#X obj 191 255 f;
#X obj 101 103 bng 15 250 50 0 empty empty empty 17 7 0 10 -191407
-1 -1;
#X obj 304 275 vline~;
#X obj 236 277 snapshot~;
#X floatatom 102 141 5 0 0 1 output - -;
#X floatatom 122 120 8 0 1 2 fade_in - -;
#X obj 353 142 tgl 15 0 empty lb0 on/off -37 7 0 10 -262144 -1 -1 1
1;
#X obj 219 255 f;
#X floatatom 183 120 8 0 1 2 fade_out - -;
#X obj 248 256 f;
#X floatatom 244 120 8 0 1 2 in_value - -;
#X obj 277 256 f;
#X floatatom 305 120 8 0 1 2 out_value - -;
#X obj 303 230 pack f f f f;
#X msg 304 254 \$3 \$1 0 \, \$4 \$2 \$1;
#X obj 213 227 t b b b b;
#X obj 100 77 inlet;
#X obj 213 194 metro;
#X obj 185 142 hsl 70 15 100 10000 1 0 empty empty self_bang 2 8 0
10 -228856 -1 -1 0 0;
#X obj 295 142 tgl 15 0 empty empty empty 17 7 0 10 -228856 -1 -1 0
1;
#X floatatom 258 140 5 0 0 0 - - -;
#X obj 326 183 outlet;
#X obj 353 274 metro 30;
#X obj 102 180 outlet~;
#X connect 1 0 14 0;
#X connect 2 0 16 0;
#X connect 2 0 22 0;
#X connect 3 0 4 0;
#X connect 4 0 5 0;
#X connect 5 0 24 0;
#X connect 6 0 1 1;
#X connect 7 0 23 0;
#X connect 8 0 14 1;
#X connect 9 0 8 1;
#X connect 10 0 14 2;
#X connect 11 0 10 1;
#X connect 12 0 14 3;
#X connect 13 0 12 1;
#X connect 14 0 15 0;
#X connect 15 0 3 0;
#X connect 16 0 1 0;
#X connect 16 1 8 0;
#X connect 16 2 10 0;
#X connect 16 3 12 0;
#X connect 17 0 2 0;
#X connect 18 0 2 0;
#X connect 19 0 21 0;
#X connect 20 0 18 0;
#X connect 21 0 18 1;
#X connect 23 0 4 0;
#X coords 0 -1 1 1 270 66 2 100 100;
