#N canvas 0 23 1440 816 12;
#X obj 508 197 openpanel;
#X obj 105 127 bng 15 250 50 0 empty empty open_raw_file 17 7 0 10
-262144 -1 -1;
#N canvas 0 22 450 278 (subpatch) 0;
#X array \$0-raw 1.34278e+06 float 2;
#X coords 0 1 1.34278e+06 -1 125 95 1 0 0;
#X restore 103 179 graph;
#X obj 508 219 t s b;
#X obj 560 245 f \$0;
#X obj 508 269 pack s f;
#X msg 508 296 read -resize -raw 0 1 2 n \$1 \$2-raw;
#X obj 508 320 soundfiler;
#X floatatom 144 279 10 0 0 1 size_(out2) - -;
#X obj 607 412 metro 100;
#X obj 236 113 hsl 128 15 30 3000 1 0 empty empty metro_msec -2 -8
0 10 -262144 -1 -1 8100 0;
#X floatatom 233 130 5 0 0 0 - - -;
#X obj 405 22 inlet;
#X obj 105 107 bng 15 250 50 0 empty empty (1/out3) 17 7 0 10 -262144
-1 -1;
#X obj 171 111 tgl 15 0 empty empty self_bang 17 7 0 10 -262144 -1
-1 0 1;
#X obj 607 458 random 0;
#X floatatom 607 482 5 0 0 0 - - -;
#X obj 607 532 pack f f;
#X msg 607 570 \$1 \$2;
#X obj 235 214 hsl 128 15 13427.8 1.34278e+06 1 0 empty empty lenght_(2)
-2 -8 0 10 -262144 -1 -1 1000 0;
#X floatatom 232 231 19 0 0 0 - - -;
#X msg 697 432 range 0 \$1;
#X obj 126 281 bng 15 250 50 0 empty empty empty 17 7 0 10 -262144
-1 -1;
#X obj 607 594 tabplay~ \$0-raw;
#X obj 591 655 *~;
#X floatatom 320 280 5 0 0 0 - - -;
#X obj 235 262 hsl 128 15 0 0.75 0 0 empty empty output_(4) -2 -8 0
10 -262144 -1 -1 6600 0;
#X obj 465 712 outlet~;
#X obj 453 41 inlet;
#X obj 555 77 inlet;
#X obj 590 508 +;
#X obj 236 163 hsl 128 15 0 1.34278e+06 0 0 empty empty random_start_range
-2 -8 0 10 -262144 -1 -1 11700 0;
#X msg 465 378 range 0 \$1;
#X floatatom 233 180 19 0 0 0 - - -;
#X obj 304 45 loadbang;
#X msg 304 69 100;
#X obj 403 80 t b;
#X obj 403 104 f 0;
#X obj 106 146 bng 15 250 50 0 empty empty open_wav_file 17 7 0 10
-262144 -1 -1;
#X obj 657 131 openpanel;
#X obj 657 153 t s b;
#X obj 709 179 f \$0;
#X obj 657 203 pack s f;
#X msg 657 230 read -resize \$1 \$2-raw;
#X floatatom 285 130 11 0 0 0 + - -;
#X obj 833 434 loadbang;
#X obj 833 458 f 0;
#X obj 548 738 outlet;
#X obj 1003 105 sel 1;
#X msg 947 158 start;
#X msg 979 206 stop;
#X obj 156 161 tgl 13 0 empty empty rec_(~3) 17 7 0 10 -262144 -1 -1
0 1;
#X obj 924 254 writesf~;
#X obj 984 129 t b b;
#X obj 1032 132 t b b;
#X obj 976 78 change;
#X obj 1032 156 delay 3;
#X msg 1037 254 read -resize raw0.1.wav \$1;
#X msg 960 184 open raw0.1.wav;
#X obj 499 58 inlet~;
#X obj 1030 223 symbol \$0-raw;
#X text 100 278 (~);
#X obj 634 760 outlet;
#X connect 0 0 3 0;
#X connect 1 0 0 0;
#X connect 3 0 5 0;
#X connect 3 1 4 0;
#X connect 4 0 5 1;
#X connect 5 0 6 0;
#X connect 6 0 7 0;
#X connect 6 0 36 0;
#X connect 7 0 8 0;
#X connect 8 0 21 0;
#X connect 8 0 32 0;
#X connect 8 0 47 0;
#X connect 9 0 13 0;
#X connect 10 0 11 0;
#X connect 11 0 9 1;
#X connect 12 0 13 0;
#X connect 13 0 15 0;
#X connect 13 0 62 0;
#X connect 14 0 9 0;
#X connect 15 0 16 0;
#X connect 16 0 30 0;
#X connect 17 0 18 0;
#X connect 18 0 23 0;
#X connect 19 0 20 0;
#X connect 20 0 17 1;
#X connect 21 0 19 0;
#X connect 22 0 8 0;
#X connect 23 0 24 0;
#X connect 24 0 27 0;
#X connect 25 0 24 1;
#X connect 26 0 25 0;
#X connect 28 0 19 0;
#X connect 29 0 26 0;
#X connect 30 0 17 0;
#X connect 31 0 33 0;
#X connect 32 0 31 0;
#X connect 33 0 15 1;
#X connect 34 0 35 0;
#X connect 35 0 10 0;
#X connect 36 0 37 0;
#X connect 38 0 39 0;
#X connect 39 0 40 0;
#X connect 40 0 42 0;
#X connect 40 1 41 0;
#X connect 41 0 42 1;
#X connect 42 0 43 0;
#X connect 43 0 7 0;
#X connect 44 0 30 1;
#X connect 45 0 46 0;
#X connect 46 0 44 0;
#X connect 48 0 53 0;
#X connect 48 1 54 0;
#X connect 49 0 52 0;
#X connect 50 0 52 0;
#X connect 51 0 55 0;
#X connect 53 0 49 0;
#X connect 53 1 58 0;
#X connect 54 0 56 0;
#X connect 54 1 50 0;
#X connect 55 0 48 0;
#X connect 56 0 60 0;
#X connect 57 0 7 0;
#X connect 58 0 52 0;
#X connect 59 0 52 0;
#X connect 60 0 57 0;
#X coords 0 -1 1 1 270 200 2 100 100;
